<?xml version="1.0" encoding="utf-8"?>

<!DOCTYPE svg PUBLIC "-//W3C//DTD SVG 1.1//EN" "http://www.w3.org/Graphics/SVG/1.1/DTD/svg11.dtd">
<!-- Uploaded to: SVG Repo, www.svgrepo.com, Generator: SVG Repo Mixer Tools -->
<svg version="1.1" id="_x32_" xmlns="http://www.w3.org/2000/svg" xmlns:xlink="http://www.w3.org/1999/xlink" 
	 width="800px" height="800px" viewBox="0 0 512 512"  xml:space="preserve">
<style type="text/css">
<![CDATA[
	.st0{fill:#000000;}
]]>
</style>
<g>
	<path class="st0" d="M213.719,304.188c0,10.25,31.672,9.031,44.344,9.031c12.656,0,44.344,1.219,44.344-9.031
		c0-10.234-22.844-17.469-44.344-17.469S213.719,293.953,213.719,304.188z"/>
	<polygon class="st0" points="267.516,256.641 254.203,234.828 240.891,256.641 254.203,258.922 	"/>
	<path class="st0" d="M375.922,390.063c-9.141-9.125-23.672-10.234-0.578-46.156c23.094-35.938,59.016-97.484,59.016-166.828
		C434.359,94.953,371.484,0,256,0S77.625,94.953,77.625,177.078c0,69.344,35.938,130.891,59.031,166.828
		c23.109,35.922,8.563,37.031-0.578,46.156c-9.125,9.141-68.516,26-68.516,85.391c0,0,51.391,36.547,188.438,36.547
		s188.438-36.547,188.438-36.547C444.438,416.063,385.047,399.203,375.922,390.063z M226.469,82.844l8.266-16.531
		c1.234-2.469,3.766-4.031,6.516-4.031H256h14.75c2.75,0,5.281,1.563,6.5,4.031l8.266,16.531c1.516,3,0.766,6.641-1.797,8.797
		l-9.75,8.25c-1.625,1.391-2.563,3.422-2.563,5.547v-0.375c0,4.016-3.266,7.266-7.281,7.266H256h-8.125
		c-4.016,0-7.281-3.25-7.281-7.266v0.375c0-2.125-0.938-4.156-2.563-5.547l-9.75-8.25C225.719,89.484,224.969,85.844,226.469,82.844
		z M296.484,271.125c19.234,8,33.516,21.531,33.516,38.484c0,8-4.063,18.609-23.375,23.719c-11.719,3.094-25.906,3.484-36.969,3.484
		c-2.891,0-5.609-0.031-8.094-0.063c-2.031-0.016-3.906-0.031-5.563-0.031s-3.531,0.016-5.563,0.031
		c-2.484,0.031-5.219,0.063-8.094,0.063c-11.063,0-25.25-0.391-36.953-3.484C186.063,328.219,182,317.609,182,309.609
		c0-17.266,14.813-31.016,34.609-38.938l18.266-33.719c-16.297,8.453-38.328,18.516-67.922,5.391
		c-57.453-25.484-50.766-107.609-33.375-123c17.172-15.203,66.891,23.781,122.422,23.781s105.25-38.984,122.422-23.781
		c17.391,15.391,24.078,97.516-33.391,123c-28.875,12.813-50.563,3.531-66.734-4.781L296.484,271.125z"/>
	<path class="st0" d="M237.484,179.219c-4.891-13.688-56.516-22.688-72.25-28.219c-13.375-4.719-15.156-0.875-15.156,5.547
		c0,0-4.906,49.625,32.547,59.891C220.094,226.703,242.344,192.781,237.484,179.219z"/>
	<path class="st0" d="M329.359,216.438c37.469-10.266,32.563-59.891,32.563-59.891c0-6.422-1.797-10.266-15.172-5.547
		c-15.719,5.531-67.344,14.531-72.25,28.219C269.656,192.781,291.906,226.703,329.359,216.438z"/>
	<path class="st0" d="M242.313,92.484c2.578,0.484,5.047-1.219,5.531-3.797l1.297-7c0.484-2.563-1.219-5.047-3.797-5.531
		c-2.563-0.469-5.047,1.219-5.531,3.797l-1.297,7C238.031,89.531,239.734,92,242.313,92.484z"/>
	<path class="st0" d="M269.5,92.484c2.563-0.484,4.266-2.953,3.781-5.531l-1.297-7c-0.484-2.578-2.953-4.266-5.531-3.797
		c-2.578,0.484-4.266,2.969-3.797,5.531l1.313,7C264.438,91.266,266.922,92.969,269.5,92.484z"/>
	<polygon class="st0" points="261.344,98.375 256.203,90.25 251.063,98.375 256.203,97.953 	"/>
</g>
</svg>