<?xml version="1.0" encoding="utf-8"?>
<!-- Generator: Adobe Illustrator 22.1.0, SVG Export Plug-In . SVG Version: 6.00 Build 0)  -->
<svg version="1.1" id="Layer_1" xmlns="http://www.w3.org/2000/svg" xmlns:xlink="http://www.w3.org/1999/xlink" x="0px" y="0px"
	 viewBox="0 0 566.9 178" style="enable-background:new 0 0 566.9 178;" xml:space="preserve">
<style type="text/css">
	.st0{fill:#69C4AC;}
	.st1{fill:#35A586;}
	.st2{fill:#C5E6DD;}
	.st3{fill:#6AC5AE;}
	.st4{fill:#EC1C24;}
</style>
<g>
	<g>
		<path class="st0" d="M394.2,19.7c-3.4-0.5-7-0.7-10.7-0.7h-40.7v53.9C343.2,44.2,365.9,21,394.2,19.7z"/>
		<path class="st0" d="M342.8,74.4v53.2h40.7c2.5,0,4.9-0.1,7.3-0.3C364,124.3,343.2,101.9,342.8,74.4z"/>
	</g>
	<path class="st0" d="M63.4,82.5v3.4H97c-2.1,6.2-5.3,10.9-9.8,14.3c-4.5,3.3-10,5-16.5,5c-9.5,0-17-2.8-22.4-8.4
		s-8.1-13.4-8.1-23.5c0-9.4,2.6-16.9,7.7-22.5c5.2-5.6,12-8.4,20.6-8.4c5,0,9.3,0.9,12.9,2.9c3.6,1.9,6.5,4.7,8.4,8.3h29.3
		c-2.9-11.1-8.8-19.9-17.7-26.2s-19.9-9.5-32.9-9.5c-10.7,0-20.3,2.3-28.7,7C31.5,29.4,25,36,20.3,44.4s-7.1,18-7.1,28.7
		s2.3,20.3,7.1,28.6c4.7,8.4,11.2,14.9,19.7,19.6c8.4,4.7,18,7,28.7,7c9.1,0,17.2-1.7,24.5-5.3c7.2-3.5,13.2-8.1,17.9-13.8
		c4.7-5.7,8-11.8,10-18.4V66.3H79.6C70.6,66.3,63.4,73.5,63.4,82.5z"/>
	<path class="st0" d="M193.7,18.9v65c0,6.5-1.6,11.5-5,15c-3.3,3.5-8,5.3-14.3,5.3c-6.2,0-10.9-1.8-14.1-5.3
		c-3.2-3.5-4.8-8.5-4.8-15V30.7C155,24.2,149.2,19,142.4,19h-13.3v64.9c0,9.7,2,18,5.9,24.7c3.9,6.8,9.3,11.8,16,15.2
		c6.8,3.4,14.4,5,23,5s16.3-1.7,23.3-5.1c7-3.4,12.5-8.5,16.7-15.2s6.2-14.9,6.2-24.6v-65H193.7z"/>
	<path class="st0" d="M303.3,18.9v67.4l-40.1-60.9c-2.6-4-7.1-6.4-11.9-6.4h-18.8v108.7H259V60.6l40.6,61.5
		c2.3,3.5,6.2,5.6,10.3,5.6h19.8V18.9H303.3z"/>
	<path class="st0" d="M527.2,18.9v65c0,6.5-1.7,11.5-5,15s-8,5.3-14.2,5.3s-10.9-1.8-14.1-5.3s-4.8-8.5-4.8-15V30.8
		c0-0.1,0-0.1,0-0.2c-0.7-6.3-5.9-11.3-12.3-11.7h-14.2v64.9c0,9.7,2,18,5.9,24.7c3.9,6.8,9.3,11.8,16,15.2s14.4,5,23,5
		c8.6,0,16.3-1.7,23.3-5.1c7-3.4,12.5-8.5,16.7-15.2c4.1-6.7,6.2-14.9,6.2-24.6V18.9H527.2z"/>
	<g>
		<path class="st1" d="M410.7,106c0.1-0.4,0.3-0.8,0.4-1.2v-0.1c0.2-0.8,0.4-1.6,0.4-2.4c0-0.1,0-0.1,0-0.2c0-0.4,0.1-0.8,0.1-1.1
			c0-0.1,0-0.1,0-0.2c0-0.4,0-0.8,0-1.2c-0.6-8.9-5.8-16.6-10.9-24c-5.8-8.5-11.8-17.3-11.6-28.4c0-0.6,0-1.2,0.1-1.8
			c0-0.2,0-0.3,0-0.5c0-0.4,0.1-0.9,0.1-1.3c0-0.1,0-0.3,0-0.4c0.1-0.5,0.1-1.1,0.2-1.6c0,0,0,0,0-0.1c0.3-2,0.7-4.1,1.2-6
			c-5.9,7.9-8.3,15.5-7.3,23.3c1.2,9.6,7,18.7,13.7,29.2l1.4,2.3c5,7.9,6.5,15.7,4.6,23.2c-0.3,1.3-0.8,2.7-1.4,4
			C405.8,114.3,409.2,110.4,410.7,106L410.7,106z"/>
		<path class="st2" d="M391.6,91.6c-7.6-12-14.8-23.3-14.9-36c-0.1-12.4,6.5-24.3,20.8-36.9c-30.2,0.1-54.8,24.7-54.8,55
			c0,25.9,18.1,47.7,42.2,53.5c2.7-1.8,9.8-7.3,11.9-15.4c1.4-5.6,0.2-11.7-3.8-17.9L391.6,91.6z M365,89.2c-3.3,1.1-6.8-0.7-7.8-4
			c-1.1-3.3,0.7-6.8,4-7.8s6.8,0.7,7.8,4C370.1,84.7,368.3,88.2,365,89.2z M362,63.8c0.1,5.2-3.2,9.8-8.1,11.3l0,0
			c-0.4,0.1-0.9-0.1-1-0.6c-4.1-21,8.1-42.2,29-48.9c1.7-0.5,3.3-1,5-1.3C371.4,31.5,361.8,47.1,362,63.8z"/>
		<path class="st3" d="M427.4,95.9c0.7-11.3-9.6-22.1-17.8-30.8c-4.4-4.7-8.3-8.7-10.3-12.5c-2.2-4.2-2.5-10-1.8-15.9
			c-0.4,1.3-0.7,2.8-1,4.2c0,0,0,0.1,0,0.2c-0.1,0.4-0.1,0.8-0.2,1.2c0,0.1,0,0.2,0,0.3c-0.1,0.4-0.1,0.7-0.1,1.1c0,0.1,0,0.3,0,0.4
			c0,0.4-0.1,0.7-0.1,1.1c0,0.1,0,0.3,0,0.4c0,0.5-0.1,1-0.1,1.6c-0.2,9,5,16.5,10.4,24.5c5.6,8.2,11.3,16.6,12,27.4
			c0,0.5,0,0.9,0,1.4c0,0.1,0,0.3,0,0.4c0,0.4,0,0.8,0,1.2c0,0.1,0,0.3,0,0.4c0,0.3-0.1,0.6-0.1,0.9c0,0.2-0.1,0.4-0.1,0.6
			s-0.1,0.4-0.1,0.6c-0.1,0.5-0.2,0.9-0.3,1.4v0.1c-1.3,5.4-4.5,10-8.4,13.8C418.6,115.2,426.7,107.6,427.4,95.9z"/>
		<path class="st2" d="M408.3,19.8c-2.6,7.8-6.5,23-3,29.7c1.6,3,5.1,6.7,9.2,11.1c9.1,9.6,20.4,21.6,19.6,35.8
			c-0.8,13.3-9.3,24.1-24.7,31.1c24.7-5.4,43.2-27.4,43.2-53.7C452.6,47,433.5,24.7,408.3,19.8z"/>
	</g>
</g>
<g>
	<path class="st4" d="M442.5,136.1c0-1.2,1-2.1,2.1-2.1H457c3.2,0,5.5,0.8,7.1,2.3s2.4,3.6,2.4,6.4c0,2.9-0.9,5.1-2.6,6.7
		s-4.3,2.4-7.9,2.4h-2.6c-1.2,0-2.1,1-2.1,2.1v6.2c0,1.2-1,2.1-2.1,2.1h-4.5c-1.2,0-2.1-1-2.1-2.1V136.1z M451.3,143.9
		c0,1.2,1,2.1,2.1,2.1l0,0c1.7,0,2.9-0.3,3.5-0.9c0.7-0.6,1-1.3,1-2.2c0-0.9-0.3-1.6-0.9-2.3s-1.7-0.9-3.3-0.9h-0.3
		c-1.2,0-2.1,1-2.1,2.1V143.9z"/>
	<path class="st4" d="M474.6,134h1.8c1.9,0,3.5,1.6,3.5,3.5v14.4c0,1.9,1.6,3.5,3.5,3.5h6.7c1.9,0,3.5,1.6,3.5,3.5v0
		c0,1.9-1.6,3.5-3.5,3.5h-15.4c-1.9,0-3.5-1.6-3.5-3.5v-21.3C471.1,135.5,472.6,134,474.6,134z"/>
	<path class="st4" d="M528.3,134h1.5c1.2,0,2.3,0.6,2.9,1.6l1.8,3c1.3,2.2,4.5,2.2,5.8,0l1.8-3.1c0.6-1,1.7-1.6,2.9-1.6h1.4
		c2.7,0,4.3,3,2.8,5.3l-6.9,10.3c-0.4,0.6-0.6,1.2-0.6,1.9v7.4c0,1.9-1.5,3.4-3.4,3.4h-2c-1.9,0-3.4-1.5-3.4-3.4v-7.4
		c0-0.7-0.2-1.3-0.6-1.9l-6.9-10.3C524,137,525.6,134,528.3,134z"/>
	<path class="st4" d="M510.4,135.8l-13.3,23c-0.9,1.6,0.2,3.5,2,3.5h26.5c1.8,0,2.9-1.9,2-3.5l-13.3-23
		C513.6,134.2,511.3,134.2,510.4,135.8z"/>
</g>
</svg>
