<?xml version="1.0" encoding="utf-8"?>
<!-- Generator: Adobe Illustrator 22.1.0, SVG Export Plug-In . SVG Version: 6.00 Build 0)  -->
<svg version="1.1" id="Layer_1" xmlns="http://www.w3.org/2000/svg" xmlns:xlink="http://www.w3.org/1999/xlink" x="0px" y="0px"
	 viewBox="0 0 566.9 178" style="enable-background:new 0 0 566.9 178;" xml:space="preserve">
<style type="text/css">
	.st0{fill:#69C4AC;}
	.st1{fill:#C5E6DD;}
	.st2{fill:#FFFFFF;}
	.st3{fill:#6AC5AE;}
	.st4{fill:#35A586;}
</style>
<g>
	<path class="st0" d="M63.4,98.3v3.4H97c-2.1,6.2-5.3,10.9-9.8,14.3c-4.5,3.3-10,5-16.5,5c-9.5,0-17-2.8-22.4-8.4
		c-5.4-5.6-8.1-13.4-8.1-23.5c0-9.4,2.6-16.9,7.7-22.5c5.2-5.6,12-8.4,20.6-8.4c5,0,9.3,0.9,12.9,2.9c3.6,1.9,6.5,4.7,8.4,8.3h29.3
		c-2.9-11.1-8.8-19.9-17.7-26.2c-8.9-6.3-19.9-9.5-32.9-9.5c-10.7,0-20.3,2.3-28.7,7C31.5,45.2,25,51.8,20.3,60.2
		c-4.7,8.4-7.1,18-7.1,28.7c0,10.7,2.3,20.3,7.1,28.6c4.7,8.4,11.2,14.9,19.7,19.6c8.4,4.7,18,7,28.7,7c9.1,0,17.2-1.7,24.5-5.3
		c7.2-3.5,13.2-8.1,17.9-13.8c4.7-5.7,8-11.8,10-18.4V82.1H79.6C70.6,82.1,63.4,89.3,63.4,98.3z"/>
	<path class="st0" d="M193.7,34.7v65c0,6.5-1.6,11.5-5,15c-3.3,3.5-8,5.3-14.3,5.3c-6.2,0-10.9-1.8-14.1-5.3
		c-3.2-3.5-4.8-8.5-4.8-15V46.5c-0.5-6.5-6.3-11.7-13.1-11.7h-13.3v64.9c0,9.7,2,18,5.9,24.7c3.9,6.8,9.3,11.8,16,15.2
		c6.8,3.4,14.4,5,23,5c8.6,0,16.3-1.7,23.3-5.1c7-3.4,12.5-8.5,16.7-15.2s6.2-14.9,6.2-24.6V34.7H193.7z"/>
	<path class="st0" d="M303.3,34.7v67.4l-40.1-60.9c-2.6-4-7.1-6.4-11.9-6.4h-18.8v108.7H259V76.4l40.6,61.5
		c2.3,3.5,6.2,5.6,10.3,5.6h19.8V34.7H303.3z"/>
	<path class="st0" d="M527.2,34.7v65c0,6.5-1.7,11.5-5,15c-3.3,3.5-8,5.3-14.2,5.3c-6.2,0-10.9-1.8-14.1-5.3
		c-3.2-3.5-4.8-8.5-4.8-15V46.6c0-0.1,0-0.1,0-0.2c-0.7-6.3-5.9-11.3-12.3-11.7h-14.2v64.9c0,9.7,2,18,5.9,24.7
		c3.9,6.8,9.3,11.8,16,15.2s14.4,5,23,5c8.6,0,16.3-1.7,23.3-5.1c7-3.4,12.5-8.5,16.7-15.2c4.1-6.7,6.2-14.9,6.2-24.6V34.7H527.2z"
		/>
	<g>
		<path class="st0" d="M383,46.9c-18.4,5.9-29.1,24.6-25.5,43.1c0.1,0.4,0.5,0.6,0.9,0.5h0c4.3-1.4,7.2-5.4,7.1-10
			c-0.2-14.6,8.3-28.4,21.9-34.7C386,46,384.5,46.4,383,46.9z"/>
		<ellipse transform="matrix(0.8426 -0.5386 0.5386 0.8426 5.1158 212.7679)" class="st0" cx="366.5" cy="97.6" rx="5.5" ry="5.5"/>
		<path class="st0" d="M404.8,35.5c-0.1,0-0.1,0-0.2,0c-2.5-0.4-5.1-0.5-7.6-0.5c-29.9,0-54.2,24.3-54.2,54.2
			c0,26.1,18.5,47.9,43,53.1c0,0,0.1,0,0.1,0c3.6,0.8,7.3,1.1,11.1,1.1c29.9,0,54.2-24.3,54.2-54.2C451.2,61.9,431,39.3,404.8,35.5z
			 M396.2,122.7c-1.8,7.1-8.1,11.9-10.5,13.5c-21.3-5.1-37.2-24.2-37.2-47c0-26.6,21.6-48.3,48.2-48.4
			c-12.6,11.1-18.4,21.5-18.3,32.4c0.1,11.2,6.4,21.1,13.1,31.6l1.3,2C396.4,112.4,397.5,117.8,396.2,122.7z M400.7,127.7
			c0.5-1.1,0.9-2.3,1.2-3.5c1.7-6.6,0.3-13.5-4.1-20.4l-1.3-2c-5.9-9.3-11-17.3-12-25.7c-0.9-6.9,1.2-13.6,6.4-20.5
			c-0.5,1.7-0.8,3.5-1.1,5.3c0,0,0,0,0,0.1c-0.1,0.5-0.1,0.9-0.2,1.4c0,0.1,0,0.2,0,0.4c0,0.4-0.1,0.8-0.1,1.2c0,0.1,0,0.3,0,0.4
			c0,0.5-0.1,1-0.1,1.6c-0.2,9.8,5.1,17.5,10.2,25c4.5,6.5,9.1,13.3,9.6,21.1c0,0.4,0,0.7,0,1.1c0,0.1,0,0.1,0,0.2
			c0,0.3,0,0.7-0.1,1c0,0.1,0,0.1,0,0.2c-0.1,0.7-0.2,1.4-0.4,2.1c0,0,0,0.1,0,0.1c-0.1,0.3-0.2,0.7-0.3,1c0,0,0,0,0,0
			C407,121.5,404.1,124.9,400.7,127.7z M414.5,117.8c0,0,0-0.1,0-0.1c0.1-0.4,0.2-0.8,0.3-1.2c0-0.2,0.1-0.3,0.1-0.5
			c0-0.2,0.1-0.4,0.1-0.5c0-0.3,0.1-0.6,0.1-0.8c0-0.1,0-0.2,0-0.4c0-0.3,0-0.7,0-1.1c0-0.1,0-0.2,0-0.3c0-0.4,0-0.8,0-1.2
			c-0.6-9.5-5.7-16.9-10.6-24.1c-4.8-7-9.3-13.7-9.2-21.6c0-0.5,0-0.9,0.1-1.4c0-0.1,0-0.3,0-0.4c0-0.3,0-0.7,0.1-1
			c0-0.1,0-0.3,0-0.4c0-0.3,0.1-0.7,0.1-1c0-0.1,0-0.2,0-0.3c0.1-0.4,0.1-0.7,0.2-1.1c0,0,0-0.1,0-0.1c0.2-1.3,0.5-2.5,0.9-3.7
			c-0.6,5.2-0.3,10.3,1.6,14c1.8,3.4,5.1,6.9,9,11c7.2,7.7,16.2,17.2,15.6,27.1c-0.6,10.3-7.8,16.9-16,21.2
			C410.5,126.6,413.4,122.5,414.5,117.8z M407.3,136.4c13.5-6.2,21-15.6,21.7-27.3c0.7-12.5-9.2-23-17.2-31.5
			c-3.6-3.8-6.7-7.1-8.1-9.7c-3.1-5.9,0.3-19.2,2.6-26.1c22.2,4.4,39,24,39,47.4C445.3,112.3,429,131.7,407.3,136.4z"/>
	</g>
	<g>
		<path class="st0" d="M394.2,35.5c-3.4-0.5-7-0.7-10.7-0.7h-40.7v53.9C343.2,60,365.9,36.8,394.2,35.5z"/>
		<path class="st0" d="M342.8,90.2v53.2h40.7c2.5,0,4.9-0.1,7.3-0.3C364,140.1,343.2,117.7,342.8,90.2z"/>
	</g>
</g>
</svg>
