<?xml version="1.0" encoding="utf-8"?>
<!-- Generator: Adobe Illustrator 22.1.0, SVG Export Plug-In . SVG Version: 6.00 Build 0)  -->
<svg version="1.1" id="Layer_1" xmlns="http://www.w3.org/2000/svg" xmlns:xlink="http://www.w3.org/1999/xlink" x="0px" y="0px"
	 viewBox="0 0 566.9 178" style="enable-background:new 0 0 566.9 178;" xml:space="preserve">
<style type="text/css">
	.st0{fill:#69C4AC;}
	.st1{fill:#EC1C24;}
</style>
<g>
	<path class="st0" d="M63.4,82.5v3.4H97c-2.1,6.2-5.3,10.9-9.8,14.3c-4.5,3.3-10,5-16.5,5c-9.5,0-17-2.8-22.4-8.4
		s-8.1-13.4-8.1-23.5c0-9.4,2.6-16.9,7.7-22.5c5.2-5.6,12-8.4,20.6-8.4c5,0,9.3,0.9,12.9,2.9c3.6,1.9,6.5,4.7,8.4,8.3h29.3
		c-2.9-11.1-8.8-19.9-17.7-26.2s-19.9-9.5-32.9-9.5c-10.7,0-20.3,2.3-28.7,7C31.5,29.4,25,36,20.3,44.4s-7.1,18-7.1,28.7
		s2.3,20.3,7.1,28.6c4.7,8.4,11.2,14.9,19.7,19.6c8.4,4.7,18,7,28.7,7c9.1,0,17.2-1.7,24.5-5.3c7.2-3.5,13.2-8.1,17.9-13.8
		c4.7-5.7,8-11.8,10-18.4V66.3H79.6C70.6,66.3,63.4,73.5,63.4,82.5z"/>
	<path class="st0" d="M193.7,18.9v65c0,6.5-1.6,11.5-5,15c-3.3,3.5-8,5.3-14.3,5.3c-6.2,0-10.9-1.8-14.1-5.3
		c-3.2-3.5-4.8-8.5-4.8-15V30.7C155,24.2,149.2,19,142.4,19h-13.3v64.9c0,9.7,2,18,5.9,24.7c3.9,6.8,9.3,11.8,16,15.2
		c6.8,3.4,14.4,5,23,5s16.3-1.7,23.3-5.1c7-3.4,12.5-8.5,16.7-15.2s6.2-14.9,6.2-24.6v-65H193.7z"/>
	<path class="st0" d="M303.3,18.9v67.4l-40.1-60.9c-2.6-4-7.1-6.4-11.9-6.4h-18.8v108.7H259V60.6l40.6,61.5
		c2.3,3.5,6.2,5.6,10.3,5.6h19.8V18.9H303.3z"/>
	<path class="st0" d="M527.2,18.9v65c0,6.5-1.7,11.5-5,15s-8,5.3-14.2,5.3s-10.9-1.8-14.1-5.3s-4.8-8.5-4.8-15V30.8
		c0-0.1,0-0.1,0-0.2c-0.7-6.3-5.9-11.3-12.3-11.7h-14.2v64.9c0,9.7,2,18,5.9,24.7c3.9,6.8,9.3,11.8,16,15.2s14.4,5,23,5
		c8.6,0,16.3-1.7,23.3-5.1c7-3.4,12.5-8.5,16.7-15.2c4.1-6.7,6.2-14.9,6.2-24.6V18.9H527.2z"/>
	<g>
		<path class="st0" d="M383,31.1c-18.4,5.9-29.1,24.6-25.5,43.1c0.1,0.4,0.5,0.6,0.9,0.5l0,0c4.3-1.4,7.2-5.4,7.1-10
			c-0.2-14.6,8.3-28.4,21.9-34.7C386,30.2,384.5,30.6,383,31.1z"/>
		<ellipse class="st0" cx="366.5" cy="81.8" rx="5.5" ry="5.5"/>
		<path class="st0" d="M404.8,19.7c-0.1,0-0.1,0-0.2,0c-2.5-0.4-5.1-0.5-7.6-0.5c-29.9,0-54.2,24.3-54.2,54.2
			c0,26.1,18.5,47.9,43,53.1h0.1c3.6,0.8,7.3,1.1,11.1,1.1c29.9,0,54.2-24.3,54.2-54.2C451.2,46.1,431,23.5,404.8,19.7z
			 M396.2,106.9c-1.8,7.1-8.1,11.9-10.5,13.5c-21.3-5.1-37.2-24.2-37.2-47c0-26.6,21.6-48.3,48.2-48.4
			c-12.6,11.1-18.4,21.5-18.3,32.4c0.1,11.2,6.4,21.1,13.1,31.6l1.3,2C396.4,96.6,397.5,102,396.2,106.9z M400.7,111.9
			c0.5-1.1,0.9-2.3,1.2-3.5c1.7-6.6,0.3-13.5-4.1-20.4l-1.3-2c-5.9-9.3-11-17.3-12-25.7c-0.9-6.9,1.2-13.6,6.4-20.5
			c-0.5,1.7-0.8,3.5-1.1,5.3c0,0,0,0,0,0.1c-0.1,0.5-0.1,0.9-0.2,1.4c0,0.1,0,0.2,0,0.4c0,0.4-0.1,0.8-0.1,1.2c0,0.1,0,0.3,0,0.4
			c0,0.5-0.1,1-0.1,1.6c-0.2,9.8,5.1,17.5,10.2,25c4.5,6.5,9.1,13.3,9.6,21.1c0,0.4,0,0.7,0,1.1c0,0.1,0,0.1,0,0.2
			c0,0.3,0,0.7-0.1,1c0,0.1,0,0.1,0,0.2c-0.1,0.7-0.2,1.4-0.4,2.1v0.1c-0.1,0.3-0.2,0.7-0.3,1l0,0
			C407,105.7,404.1,109.1,400.7,111.9z M414.5,102L414.5,102c0.1-0.5,0.2-0.9,0.3-1.3c0-0.2,0.1-0.3,0.1-0.5s0.1-0.4,0.1-0.5
			c0-0.3,0.1-0.6,0.1-0.8c0-0.1,0-0.2,0-0.4c0-0.3,0-0.7,0-1.1c0-0.1,0-0.2,0-0.3c0-0.4,0-0.8,0-1.2c-0.6-9.5-5.7-16.9-10.6-24.1
			c-4.8-7-9.3-13.7-9.2-21.6c0-0.5,0-0.9,0.1-1.4c0-0.1,0-0.3,0-0.4c0-0.3,0-0.7,0.1-1c0-0.1,0-0.3,0-0.4c0-0.3,0.1-0.7,0.1-1
			c0-0.1,0-0.2,0-0.3c0.1-0.4,0.1-0.7,0.2-1.1v-0.1c0.2-1.3,0.5-2.5,0.9-3.7c-0.6,5.2-0.3,10.3,1.6,14c1.8,3.4,5.1,6.9,9,11
			c7.2,7.7,16.2,17.2,15.6,27.1c-0.6,10.3-7.8,16.9-16,21.2C410.5,110.8,413.4,106.7,414.5,102z M407.3,120.6
			c13.5-6.2,21-15.6,21.7-27.3c0.7-12.5-9.2-23-17.2-31.5c-3.6-3.8-6.7-7.1-8.1-9.7c-3.1-5.9,0.3-19.2,2.6-26.1
			c22.2,4.4,39,24,39,47.4C445.3,96.5,429,115.9,407.3,120.6z"/>
	</g>
	<g>
		<path class="st0" d="M394.2,19.7c-3.4-0.5-7-0.7-10.7-0.7h-40.7v53.9C343.2,44.2,365.9,21,394.2,19.7z"/>
		<path class="st0" d="M342.8,74.4v53.2h40.7c2.5,0,4.9-0.1,7.3-0.3C364,124.3,343.2,101.9,342.8,74.4z"/>
	</g>
</g>
<g>
	<path class="st1" d="M442.5,136.1c0-1.2,1-2.1,2.1-2.1H457c3.2,0,5.5,0.8,7.1,2.3s2.4,3.6,2.4,6.4c0,2.9-0.9,5.1-2.6,6.7
		s-4.3,2.4-7.9,2.4h-2.6c-1.2,0-2.1,1-2.1,2.1v6.2c0,1.2-1,2.1-2.1,2.1h-4.5c-1.2,0-2.1-1-2.1-2.1V136.1z M451.3,143.9
		c0,1.2,1,2.1,2.1,2.1l0,0c1.7,0,2.9-0.3,3.5-0.9c0.7-0.6,1-1.3,1-2.2c0-0.9-0.3-1.6-0.9-2.3s-1.7-0.9-3.3-0.9h-0.3
		c-1.2,0-2.1,1-2.1,2.1V143.9z"/>
	<path class="st1" d="M474.6,134h1.8c1.9,0,3.5,1.6,3.5,3.5v14.4c0,1.9,1.6,3.5,3.5,3.5h6.7c1.9,0,3.5,1.6,3.5,3.5v0
		c0,1.9-1.6,3.5-3.5,3.5h-15.4c-1.9,0-3.5-1.6-3.5-3.5v-21.3C471.1,135.5,472.6,134,474.6,134z"/>
	<path class="st1" d="M528.3,134h1.5c1.2,0,2.3,0.6,2.9,1.6l1.8,3c1.3,2.2,4.5,2.2,5.8,0l1.8-3.1c0.6-1,1.7-1.6,2.9-1.6h1.4
		c2.7,0,4.3,3,2.8,5.3l-6.9,10.3c-0.4,0.6-0.6,1.2-0.6,1.9v7.4c0,1.9-1.5,3.4-3.4,3.4h-2c-1.9,0-3.4-1.5-3.4-3.4v-7.4
		c0-0.7-0.2-1.3-0.6-1.9l-6.9-10.3C524,137,525.6,134,528.3,134z"/>
	<path class="st1" d="M510.4,135.8l-13.3,23c-0.9,1.6,0.2,3.5,2,3.5h26.5c1.8,0,2.9-1.9,2-3.5l-13.3-23
		C513.6,134.2,511.3,134.2,510.4,135.8z"/>
</g>
</svg>
