<?xml version="1.0" encoding="utf-8"?>
<!-- Generator: Adobe Illustrator 15.1.0, SVG Export Plug-In . SVG Version: 6.00 Build 0)  -->
<!DOCTYPE svg PUBLIC "-//W3C//DTD SVG 1.1//EN" "http://www.w3.org/Graphics/SVG/1.1/DTD/svg11.dtd">
<svg version="1.1" id="Layer_1" xmlns="http://www.w3.org/2000/svg" xmlns:xlink="http://www.w3.org/1999/xlink" x="0px" y="0px"
	 width="566.93px" height="178px" viewBox="0 0 566.93 178" enable-background="new 0 0 566.93 178" xml:space="preserve">
<circle fill="#5DD2B3" cx="-237.788" cy="6.387" r="84.5"/>
<circle fill="#5DD2B3" cx="-734.103" cy="20.482" r="84.5"/>
<rect x="-279.271" y="-35.097" transform="matrix(0.7071 -0.7071 0.7071 0.7071 -74.1618 -166.2699)" fill="none" stroke="#FCFCFC" stroke-width="4.3976" stroke-miterlimit="10" width="82.967" height="82.967"/>
<polyline fill="none" stroke="#FCFCFC" stroke-width="4.3976" stroke-miterlimit="10" points="-179.121,6.387 -237.787,6.387 
	-237.787,64.012 "/>
<circle fill="#5DD2B3" cx="-421.878" cy="5.533" r="84.5"/>
<circle fill="#FCFCFC" cx="-421.878" cy="5.533" r="49.833"/>
<rect x="-426.802" y="-4.654" fill="#5DD2B3" width="79" height="29.333"/>
<rect x="-408.468" y="-20.987" fill="#FCFCFC" width="79" height="16"/>
<rect x="-435.968" y="-20.154" fill="#5DD2B3" width="29.333" height="56.333"/>
<circle fill="#FFFFFF" cx="-734.103" cy="20.481" r="53.5"/>
<path fill="none" stroke="#5DD2B3" stroke-width="26" stroke-miterlimit="10" d="M-670.219,59.352c0,0-23.987-5.257-42.828-25.976
	c-18.876-20.758-20.311-23.373-20.311-23.373s-8.977,17.93-16.77,28.932c-17.34,24.483-44.206,5.899-44.206,5.899"/>
<rect x="-684.207" y="8.155" transform="matrix(0.5723 -0.82 0.82 0.5723 -314.9549 -536.0583)" fill="#FFFFFF" width="25.666" height="51.5"/>
<path fill="#5DD2B3" d="M-334.417,263.421c-0.751,0.314-1.507,0.619-2.267,0.912C-335.925,264.04-335.169,263.736-334.417,263.421z"
	/>
<circle fill="none" stroke="#5DD2B3" stroke-width="32" stroke-miterlimit="10" cx="-953.334" cy="210.333" r="105.667"/>
<circle fill="none" stroke="#42937C" stroke-width="32" stroke-miterlimit="10" cx="-774.459" cy="210.333" r="105.667"/>
<g>
	<path fill="#5DD2B3" d="M782.217,57.667c-0.01-0.032-0.013-0.064-0.023-0.097c-4.614,3.029-9.658,5.131-14.873,6.303
		c-0.133,0.029-0.266,0.059-0.402,0.085c-5.232,1.132-10.621,1.32-15.906,0.582c-5.346-0.744-10.58-2.446-15.425-5.09
		c-3.048-1.663-5.942-3.696-8.614-6.107c0,0.001,0.001,0.001,0.001,0.001s-0.001,0-0.001-0.001c0.313,0.374,0.612,0.754,0.911,1.135
		c5.401,6.917,8.514,15.03,9.345,23.321c0.455,4.58,0.227,9.217-0.705,13.734c2.064,0.328,4.186,0.393,6.283,0.184
		c3.109-0.311,6.08-1.189,8.834-2.623c0.098-0.045,0.155-0.076,0.208-0.112l0.115-0.063c0.473-0.251,0.938-0.521,1.394-0.804
		c0.218-2.354,0.308-4.721,0.255-7.083c3.288,0.204,6.592,0.138,9.873-0.19c0,0-0.001,0,0,0.001
		c-0.056,0.11-0.128,0.222-0.192,0.333c-1.184,1.962-2.64,3.803-4.363,5.466c-1.806,1.734-3.787,3.165-5.896,4.282
		c-0.111,0.072-0.227,0.132-0.344,0.188c-5.182,2.69-11.053,3.564-16.681,2.65c-0.096-0.016-0.183-0.031-0.263-0.041
		c-5.431-0.945-10.608-3.555-14.715-7.813c-5.859-6.098-8.256-14.269-7.24-22.065c0.025-0.212,0.057-0.415,0.086-0.622
		c0.84-5.451,3.348-10.664,7.514-14.83c0.041-0.046,0.082-0.086,0.111-0.116c0.081-0.081,0.168-0.167,0.248-0.243l0.116-0.111
		c4.253-4.046,9.496-6.427,14.911-7.145c0.207-0.025,0.42-0.051,0.617-0.071c7.984-0.879,16.281,1.82,22.268,8.04
		c2.08,2.166,3.717,4.595,4.926,7.175c-4.234,2.264-8.766,3.769-13.393,4.51c-0.066,0.02-0.137,0.03-0.208,0.035
		c-1.736,0.272-3.389,0.486-5.071,0.585c0.008,0.004,0.016,0.009,0.023,0.012c-0.014-0.002-0.027-0.003-0.04-0.005
		c0.02,0.005,0.04,0.01,0.06,0.016c0.059,0.018,0.116,0.04,0.174,0.059c0.016,0,0.031,0,0.046-0.001
		c3.608,0.987,7.401,1.52,11.319,1.519c3.1,0,6.123-0.328,9.036-0.961c0,0.005,0.005,0.015,0.005,0.021
		c0.092-0.015,0.178-0.031,0.264-0.051c3.245-0.728,6.36-1.814,9.313-3.25c0.304-0.147,0.602-0.294,0.9-0.45
		c0.035-0.021,0.082-0.041,0.121-0.061c0.238-0.127,0.48-0.253,0.719-0.379c0.252-0.136,0.5-0.273,0.748-0.415
		c0.232-0.136,0.465-0.273,0.697-0.409c0.557-0.329,1.103-0.673,1.645-1.026l0.637-0.42c-0.344-1.188-0.744-2.366-1.193-3.529
		c-1.992-5.137-5.016-9.971-9.072-14.188c-13.131-13.652-33.184-16.731-49.42-9.01c-0.187,0.08-0.363,0.167-0.541,0.252
		c-2.533,1.244-4.971,2.756-7.271,4.536c-0.125,0.091-0.252,0.192-0.379,0.293c-1.082,0.855-2.139,1.775-3.154,2.756
		c-1.107,1.062-2.148,2.179-3.115,3.337c-0.106,0.122-0.207,0.243-0.313,0.37c-1.866,2.26-3.454,4.677-4.783,7.2
		c-0.097,0.167-0.187,0.35-0.278,0.526c-8.074,15.867-5.709,35.799,7.316,49.334c5.542,5.765,12.322,9.643,19.522,11.619
		c0.036,0.011,0.066,0.011,0.097,0.027c1.683,0.457,3.389,0.807,5.108,1.058c4.282,0.626,8.643,0.608,12.923-0.062
		c0.07-0.006,0.141-0.018,0.205-0.035c0,0,0,0,0-0.002c0,0,0.001,0,0.002,0c8.343-1.334,16.377-5.146,22.91-11.432
		c6.492-6.244,10.598-14.057,12.276-22.283c0.015-0.066,0.025-0.142,0.04-0.208c0.002,0,0.002,0,0.002,0
		c0.084-0.419,0.159-0.839,0.23-1.259c0.02-0.108,0.035-0.218,0.053-0.327c0.049-0.307,0.096-0.613,0.139-0.921
		c0.008-0.058,0.019-0.115,0.027-0.173c-0.002,0.001-0.004,0.001-0.004,0.002C783.604,67.993,783.379,62.745,782.217,57.667z"/>
	<path fill="#FFFFFF" d="M705.49,50.875c0.088-0.171,0.176-0.348,0.27-0.511c1.293-2.453,2.836-4.802,4.65-7
		c0.104-0.123,0.201-0.241,0.305-0.359c0.938-1.125,1.951-2.212,3.027-3.244c0.988-0.954,2.017-1.849,3.068-2.68
		c0.123-0.098,0.246-0.196,0.369-0.285c2.236-1.73,4.605-3.2,7.068-4.41c0.172-0.083,0.345-0.167,0.525-0.246
		c4.671-2.221,9.667-3.515,14.717-3.903c-6.133-0.519-12.384,0.559-18.063,3.26c-0.152,0.066-0.298,0.136-0.443,0.207
		c-2.068,1.016-4.061,2.252-5.94,3.706c-0.104,0.074-0.207,0.157-0.31,0.239c-0.885,0.699-1.748,1.451-2.578,2.253
		c-0.905,0.867-1.756,1.78-2.545,2.727c-0.088,0.099-0.17,0.199-0.256,0.302c-1.525,1.847-2.822,3.821-3.909,5.883
		c-0.079,0.136-0.153,0.285-0.228,0.43c-2.615,5.14-3.885,10.801-3.809,16.453C702.066,59.273,703.422,54.937,705.49,50.875z"/>
	<path fill="#FFFFFF" d="M775.499,84.291c-0.089,0.173-0.177,0.349-0.271,0.511c-1.293,2.453-2.836,4.803-4.65,7
		c-0.104,0.123-0.201,0.241-0.305,0.359c-0.938,1.125-1.951,2.211-3.027,3.244c-0.988,0.953-2.016,1.848-3.068,2.68
		c-0.123,0.098-0.246,0.195-0.369,0.283c-2.236,1.732-4.605,3.201-7.068,4.411c-0.172,0.083-0.345,0.167-0.525,0.245
		c-4.672,2.221-9.667,3.515-14.717,3.904c6.134,0.519,12.384-0.561,18.063-3.26c0.153-0.066,0.297-0.137,0.443-0.207
		c2.069-1.016,4.061-2.252,5.94-3.706c0.103-0.075,0.206-0.157,0.31-0.239c0.885-0.699,1.748-1.451,2.578-2.252
		c0.905-0.867,1.756-1.781,2.545-2.727c0.088-0.1,0.17-0.199,0.256-0.302c1.525-1.847,2.822-3.821,3.909-5.884
		c0.078-0.137,0.153-0.285,0.228-0.43c2.615-5.14,3.885-10.801,3.809-16.452C778.922,75.894,777.566,80.229,775.499,84.291z"/>
</g>
<g>
	<path fill="#5DD2B3" d="M832.195,57.802c-0.939-1.73-2.286-3.051-4.039-3.966c-1.756-0.914-3.818-1.371-6.19-1.371
		c-4.103,0-7.389,1.347-9.858,4.04c-2.473,2.694-3.707,6.29-3.707,10.786c0,4.794,1.297,8.537,3.892,11.23
		c2.595,2.694,6.165,4.04,10.712,4.04c3.113,0,5.745-0.79,7.895-2.372c2.15-1.581,3.719-3.854,4.707-6.82H819.52v-9.34h27.576
		v11.787c-0.939,3.162-2.533,6.104-4.781,8.82c-2.25,2.719-5.104,4.918-8.563,6.598c-3.459,1.682-7.363,2.521-11.712,2.521
		c-5.141,0-9.724-1.124-13.751-3.373c-4.028-2.249-7.166-5.375-9.414-9.378c-2.25-4.003-3.373-8.574-3.373-13.714
		c0-5.139,1.123-9.723,3.373-13.751c2.248-4.027,5.374-7.165,9.377-9.415c4.003-2.248,8.573-3.373,13.714-3.373
		c6.227,0,11.478,1.508,15.753,4.522c4.273,3.015,7.104,7.19,8.488,12.528H832.195z"/>
	<path fill="#5DD2B3" d="M863.626,41.345v31.134c0,3.114,0.766,5.511,2.299,7.19c1.53,1.682,3.78,2.521,6.745,2.521
		c2.966,0,5.239-0.84,6.821-2.521c1.58-1.679,2.371-4.076,2.371-7.19V41.345h12.676v31.06c0,4.646-0.988,8.575-2.965,11.787
		c-1.977,3.213-4.633,5.634-7.969,7.265s-7.055,2.446-11.157,2.446c-4.104,0-7.771-0.803-11.008-2.409
		c-3.238-1.605-5.795-4.027-7.673-7.265c-1.878-3.235-2.817-7.178-2.817-11.824v-31.06H863.626z"/>
	<path fill="#5DD2B3" d="M947.022,93.384h-12.678l-21.201-32.098v32.098h-12.676V41.345h12.676l21.201,32.246V41.345h12.678V93.384z
		"/>
	<path fill="#5DD2B3" d="M987.126,44.606c4.102,2.175,7.275,5.226,9.525,9.155c2.248,3.928,3.373,8.463,3.373,13.602
		c0,5.091-1.125,9.613-3.373,13.566c-2.25,3.954-5.438,7.019-9.563,9.192c-4.127,2.175-8.908,3.262-14.344,3.262h-19.496V41.345
		h19.496C978.229,41.345,983.022,42.432,987.126,44.606z M983.122,78.483c2.67-2.619,4.004-6.325,4.004-11.12
		c0-4.792-1.334-8.524-4.004-11.193c-2.668-2.668-6.4-4.003-11.193-4.003h-6.004v30.245h6.004
		C976.722,82.412,980.454,81.104,983.122,78.483z"/>
	<path fill="#5DD2B3" d="M1016.628,41.345v31.134c0,3.114,0.766,5.511,2.299,7.19c1.531,1.682,3.779,2.521,6.746,2.521
		c2.965,0,5.236-0.84,6.818-2.521c1.582-1.679,2.373-4.076,2.373-7.19V41.345h12.676v31.06c0,4.646-0.988,8.575-2.965,11.787
		c-1.977,3.213-4.633,5.634-7.969,7.265s-7.055,2.446-11.156,2.446c-4.104,0-7.773-0.803-11.01-2.409
		c-3.236-1.605-5.795-4.027-7.672-7.265c-1.879-3.235-2.816-7.178-2.816-11.824v-31.06H1016.628z"/>
</g>
<g>
	<g>
		<linearGradient id="SVGID_1_" gradientUnits="userSpaceOnUse" x1="67.3784" y1="86.4009" x2="177.1338" y2="86.4009">
			<stop  offset="0" style="stop-color:#5DD2B3"/>
			<stop  offset="1" style="stop-color:#5DD2B3"/>
		</linearGradient>
		<path fill="url(#SVGID_1_)" d="M177.134,86.401c0,2.463-0.159,4.878-0.488,7.244c-0.109,0.854-0.244,1.708-0.39,2.549
			c-0.073,0.391-0.146,0.78-0.22,1.17c-0.097,0.464-0.195,0.927-0.305,1.378c-4.975,21.646-22.731,38.39-44.902,41.865
			c-2.793,0.451-5.659,0.671-8.573,0.671c-2.817,0-5.585-0.207-8.293-0.622c-2.073-0.317-4.11-0.756-6.109-1.292
			c-1.097-0.293-2.171-0.623-3.244-0.988c-7.463-2.525-14.207-6.634-19.853-11.915c-0.854-0.793-1.684-1.635-2.476-2.488
			c-0.719-0.756-1.414-1.537-2.073-2.329c-0.244-0.292-0.488-0.585-0.72-0.89c-1.646-2.012-3.122-4.134-4.438-6.378
			c-0.476-0.78-0.915-1.573-1.33-2.378c-0.061-0.11-0.109-0.208-0.158-0.317c-1.037-1.951-1.927-3.976-2.719-6.061
			c0-0.012-0.013-0.037-0.013-0.049c-0.89-2.39-1.609-4.829-2.17-7.354c-0.109-0.5-0.207-1-0.305-1.5
			c-0.646-3.354-0.976-6.792-0.976-10.317c0-6.939,1.28-13.573,3.634-19.683c0.768-1.976,1.634-3.89,2.609-5.755
			c1.769-3.378,3.878-6.549,6.281-9.464c2.536-3.073,5.402-5.866,8.537-8.317c1.841-1.451,3.792-2.781,5.817-3.988
			c1.183-0.695,2.402-1.366,3.646-1.976c5.256-2.61,10.988-4.402,17.024-5.208c2.402-0.316,4.841-0.487,7.329-0.487
			c13.415,0,25.707,4.805,35.231,12.816c0.524,0.427,1.049,0.878,1.549,1.342c0.915,0.817,1.792,1.658,2.634,2.548
			c0.67,0.671,1.305,1.378,1.927,2.098c4.378,4.988,7.841,10.78,10.17,17.122c-5.646,4-12.146,6.89-19.158,8.354
			c-3.427,0.719-6.988,1.097-10.622,1.097c-4.987,0-9.805-0.719-14.365-2.037c7.012-1.476,13.5-4.354,19.134-8.354
			c0.256-0.171,0.488-0.341,0.731-0.537c-2.061-2.744-4.524-5.171-7.317-7.17c-4.694-3.415-10.317-5.647-16.402-6.256
			c-1.159-0.122-2.33-0.183-3.512-0.183c-1.573,0-3.11,0.098-4.622,0.317c-5.025,0.67-9.695,2.451-13.781,5.073
			c-0.378,0.244-0.744,0.488-1.109,0.756c-0.732,0.512-1.451,1.048-2.134,1.622c-0.695,0.573-1.366,1.17-2.013,1.805
			c-0.146,0.134-0.292,0.281-0.439,0.427c-5.036,5.036-8.487,11.67-9.573,19.061c-0.243,1.622-0.365,3.293-0.365,4.976
			c0,4.402,0.841,8.622,2.366,12.487c1.085,2.744,2.524,5.33,4.256,7.671c5.122,6.951,12.816,11.89,21.682,13.39
			c1.866,0.317,3.781,0.488,5.732,0.488s3.866-0.171,5.731-0.488c0.013,0,0.037-0.012,0.049-0.012
			c1.195-0.207,2.366-0.463,3.5-0.792c0.573-0.159,1.135-0.329,1.695-0.524c0.829-0.28,1.622-0.585,2.415-0.927
			c0.805-0.342,1.585-0.707,2.354-1.11c5.598-2.927,10.292-7.378,13.524-12.805c-1.573,0.158-3.17,0.268-4.768,0.317
			c-0.83,0.037-1.659,0.049-2.5,0.049h-0.671c-1.671,0-3.329-0.061-4.963-0.183c0.024,0.781,0.037,1.549,0.037,2.341
			c0,0.83-0.012,1.671-0.049,2.5c-4.585,3.366-10.231,5.341-16.354,5.341c-1.573,0-3.11-0.122-4.61-0.378
			c0.329-2.439,0.476-4.939,0.476-7.464c0-2.244-0.122-4.451-0.365-6.621c-0.086-0.696-0.171-1.391-0.281-2.062
			c-0.012-0.159-0.048-0.317-0.061-0.463c-0.049-0.292-0.098-0.561-0.146-0.829c-0.098-0.561-0.195-1.122-0.305-1.671
			c-0.073-0.354-0.158-0.695-0.231-1.048c-0.11-0.464-0.208-0.939-0.317-1.403c-0.098-0.39-0.22-0.768-0.317-1.171
			c-0.109-0.402-0.219-0.817-0.341-1.231c-0.11-0.415-0.256-0.83-0.391-1.232c-0.109-0.378-0.231-0.755-0.353-1.134
			c-0.146-0.427-0.317-0.854-0.464-1.281c-0.134-0.341-0.256-0.695-0.39-1.037c-0.171-0.439-0.354-0.866-0.536-1.305
			c-0.134-0.329-0.269-0.646-0.403-0.963c-0.171-0.378-0.354-0.768-0.524-1.146c-0.037-0.061-0.061-0.122-0.098-0.183
			c-0.134-0.305-0.268-0.598-0.402-0.89c-0.232-0.452-0.464-0.903-0.708-1.354c-0.134-0.269-0.28-0.537-0.415-0.805
			c-0.256-0.463-0.512-0.915-0.78-1.366c-0.146-0.243-0.28-0.5-0.427-0.744c-0.28-0.463-0.561-0.915-0.841-1.354
			c-0.159-0.232-0.305-0.476-0.452-0.707c-0.305-0.452-0.609-0.891-0.926-1.33c-0.146-0.219-0.293-0.451-0.451-0.67
			c-0.317-0.439-0.647-0.866-0.976-1.292c-0.17-0.22-0.33-0.427-0.488-0.646c-0.329-0.415-0.683-0.842-1.024-1.257
			c-0.171-0.207-0.329-0.414-0.5-0.609c-0.354-0.415-0.719-0.817-1.085-1.22c-0.085-0.109-0.269-0.341-0.427-0.548
			c-0.159-0.22-0.293-0.415-0.305-0.439c0.024,0,0.219,0.146,0.415,0.329c0.195,0.171,0.403,0.342,0.488,0.427
			c0.391,0.378,0.792,0.768,1.195,1.146c0.183,0.171,0.378,0.33,0.561,0.5c0.427,0.378,0.83,0.756,1.256,1.11
			c0.195,0.158,0.39,0.317,0.585,0.475c0.439,0.366,0.866,0.708,1.305,1.061c0.207,0.146,0.402,0.305,0.61,0.451
			c0.439,0.33,0.878,0.683,1.341,1c0.208,0.146,0.427,0.293,0.646,0.439c0.451,0.317,0.902,0.634,1.366,0.939
			c0.231,0.146,0.451,0.28,0.683,0.415c0.451,0.292,0.915,0.585,1.378,0.866c0.244,0.146,0.5,0.281,0.744,0.427
			c0.463,0.268,0.915,0.524,1.39,0.78c0.269,0.146,0.537,0.28,0.805,0.415c0.293,0.158,0.598,0.317,0.903,0.463
			c0.158,0.085,0.317,0.171,0.475,0.244c0.281,0.134,0.574,0.268,0.878,0.402c0.439,0.208,0.89,0.427,1.354,0.622
			c0.305,0.134,0.634,0.268,0.952,0.403c0.438,0.183,0.877,0.366,1.329,0.537c0.341,0.134,0.695,0.256,1.061,0.378
			c0.415,0.158,0.841,0.317,1.268,0.463c0.39,0.134,0.792,0.244,1.195,0.378c0.39,0.109,0.78,0.244,1.183,0.366
			c0.439,0.134,0.903,0.244,1.354,0.366c0.354,0.085,0.707,0.195,1.073,0.28c0.537,0.122,1.073,0.244,1.622,0.354
			c0.281,0.061,0.549,0.134,0.83,0.183c0.841,0.158,1.658,0.317,2.512,0.439c2.878,0.439,5.841,0.67,8.841,0.67
			c1.976,0,3.927-0.097,5.854-0.305c2.11-0.195,4.183-0.524,6.22-0.951c0.024-0.012,0.049-0.012,0.073-0.012
			c6.463-1.366,12.524-3.793,18-7.123c0.548-0.329,1.098-0.67,1.646-1.024c0,0,0,0.012,0,0.024c0.024,0.109,0.049,0.207,0.073,0.316
			c0.012,0.049,0.024,0.098,0.024,0.135c0.012,0.073,0.037,0.146,0.049,0.219c0.366,1.731,0.659,3.5,0.841,5.293
			c0.122,0.926,0.195,1.866,0.256,2.816c0.013,0.135,0.013,0.269,0.024,0.403c0.024,0.476,0.049,0.951,0.062,1.426v0.062
			C177.121,85.401,177.134,85.901,177.134,86.401z"/>
		<path fill="#37A585" d="M177.199,86.401c0,2.463-0.159,4.878-0.488,7.244c-0.109,0.854-0.244,1.708-0.39,2.549
			c-0.073,0.391-0.146,0.78-0.22,1.17c-0.097,0.464-0.195,0.927-0.305,1.378c-4.975,21.646-22.731,38.39-44.902,41.865
			c-2.793,0.451-5.659,0.671-8.573,0.671c-2.817,0-5.585-0.207-8.293-0.622c-2.073-0.317-4.11-0.756-6.11-1.292
			c-1.097-0.293-2.171-0.623-3.244-0.988c36.133-1.622,65.67-28.537,71.316-63.476c0.366,1.731,0.659,3.5,0.841,5.293
			c0.122,0.926,0.195,1.866,0.256,2.816c0.013,0.135,0.013,0.269,0.024,0.403c0.024,0.476,0.049,0.951,0.062,1.426v0.062
			C177.187,85.401,177.199,85.901,177.199,86.401z"/>
		<path fill="#BFF7E6" d="M67.378,86.401c0-2.463,0.159-4.878,0.488-7.244c0.109-0.854,0.244-1.708,0.39-2.549
			c0.073-0.391,0.146-0.78,0.22-1.17c0.097-0.464,0.195-0.927,0.305-1.378c4.975-21.646,22.731-38.39,44.902-41.865
			c2.793-0.451,5.659-0.671,8.573-0.671c2.817,0,5.585,0.207,8.293,0.622c2.073,0.317,4.11,0.755,6.11,1.292
			c1.097,0.293,2.171,0.623,3.244,0.988c-36.134,1.622-65.67,28.537-71.316,63.476c-0.366-1.731-0.659-3.5-0.841-5.293
			c-0.122-0.926-0.195-1.866-0.256-2.816c-0.013-0.135-0.013-0.269-0.024-0.403c-0.024-0.476-0.049-0.951-0.062-1.426v-0.062
			C67.391,87.401,67.378,86.901,67.378,86.401z"/>
	</g>
	<g>
		<path fill="#5DD2B3" d="M222.63,82.38v11.39h19.62c-1.21,3.61-3.12,6.39-5.74,8.32c-2.62,1.92-5.83,2.89-9.63,2.89
			c-5.54,0-9.9-1.64-13.06-4.93c-3.17-3.28-4.75-7.85-4.75-13.69c0-5.49,1.51-9.87,4.52-13.16c3.01-3.28,7.02-4.92,12.03-4.92
			c2.89,0,5.4,0.55,7.55,1.67c2.13,1.11,3.77,2.72,4.92,4.83h17.09c-1.69-6.5-5.14-11.6-10.35-15.27
			c-5.22-3.68-11.62-5.52-19.21-5.52c-6.27,0-11.85,1.37-16.73,4.11c-4.88,2.75-8.69,6.57-11.43,11.49
			c-2.75,4.91-4.12,10.5-4.12,16.77c0,6.26,1.37,11.84,4.12,16.72c2.74,4.88,6.56,8.69,11.48,11.44c4.91,2.74,10.5,4.11,16.77,4.11
			c5.3,0,10.06-1.02,14.28-3.08c4.22-2.04,7.7-4.73,10.44-8.04c2.74-3.31,4.69-6.9,5.83-10.76V82.38H222.63z"/>
		<path fill="#5DD2B3" d="M298.66,54.72v37.96c0,3.8-0.96,6.72-2.891,8.77c-1.93,2.05-4.699,3.08-8.319,3.08s-6.36-1.03-8.23-3.08
			c-1.87-2.05-2.8-4.97-2.8-8.77V61.57c-0.31-3.82-3.7-6.85-7.67-6.85h-7.79v37.87c0,5.67,1.15,10.48,3.44,14.42
			c2.29,3.95,5.4,6.9,9.35,8.86s8.42,2.94,13.43,2.94c5,0,9.54-1,13.601-2.98c4.069-1.99,7.31-4.94,9.72-8.86
			c2.41-3.92,3.62-8.71,3.62-14.38V54.72H298.66z"/>
		<path fill="#5DD2B3" d="M362.66,54.72v39.32L336.81,54.72h-15.46v63.46h15.46V79.03l25.851,39.15h15.46V54.72H362.66z"/>
		<path fill="#5DD2B3" d="M438.65,69.86c-2.75-4.79-6.62-8.51-11.62-11.17c-5.011-2.65-10.851-3.97-17.54-3.97H385.72v63.46h23.771
			c6.63,0,12.46-1.33,17.49-3.98c5.029-2.65,8.92-6.39,11.67-11.21c2.739-4.82,4.109-10.34,4.109-16.54
			C442.76,80.18,441.39,74.65,438.65,69.86z M422.15,100.01c-3.261,3.19-7.811,4.79-13.65,4.79h-7.33V67.91h7.33
			c5.84,0,10.39,1.63,13.65,4.89c3.25,3.25,4.88,7.8,4.88,13.65C427.03,92.29,425.4,96.81,422.15,100.01z"/>
		<path fill="#5DD2B3" d="M485.25,54.72v37.96c0,3.8-0.97,6.72-2.9,8.77c-1.93,2.05-4.699,3.08-8.31,3.08
			c-3.62,0-6.36-1.03-8.23-3.08c-1.869-2.05-2.8-4.97-2.8-8.77V61.66c0-0.04-0.01-0.07-0.01-0.11c-0.41-3.7-3.43-6.6-7.18-6.83
			h-8.271v37.87c0,5.67,1.141,10.48,3.431,14.42c2.289,3.95,5.409,6.9,9.359,8.86s8.42,2.94,13.43,2.94c5,0,9.53-1,13.601-2.98
			c4.07-1.99,7.31-4.94,9.72-8.86c2.41-3.92,3.61-8.71,3.61-14.38V54.72H485.25z"/>
	</g>
</g>
<g>
	<path fill="#5DD2B3" d="M-133.417,332.99c-0.014-0.039-0.018-0.08-0.029-0.121c-5.798,3.805-12.132,6.445-18.683,7.918
		c-0.168,0.036-0.333,0.074-0.505,0.107c-6.572,1.421-13.341,1.658-19.979,0.73c-6.716-0.936-13.29-3.073-19.376-6.395
		c-3.827-2.088-7.464-4.643-10.818-7.67c0,0.001,0,0.002,0,0.002c0-0.001,0-0.001-0.002-0.002c0.393,0.47,0.77,0.947,1.145,1.426
		c6.785,8.688,10.693,18.879,11.739,29.293c0.571,5.752,0.284,11.576-0.888,17.251c2.595,0.412,5.258,0.493,7.893,0.231
		c3.907-0.391,7.639-1.494,11.098-3.295c0.123-0.057,0.193-0.096,0.26-0.142l0.145-0.079c0.594-0.314,1.181-0.653,1.752-1.009
		c0.272-2.958,0.385-5.93,0.319-8.897c4.131,0.257,8.279,0.174,12.401-0.238c0,0,0,0,0,0.001c-0.07,0.139-0.16,0.278-0.241,0.418
		c-1.486,2.464-3.316,4.776-5.481,6.866c-2.268,2.178-4.757,3.975-7.405,5.379c-0.14,0.09-0.286,0.165-0.432,0.234
		c-6.51,3.38-13.883,4.478-20.955,3.33c-0.119-0.02-0.228-0.039-0.328-0.052c-6.822-1.188-13.326-4.466-18.483-9.813
		c-7.36-7.659-10.371-17.923-9.094-27.716c0.032-0.267,0.07-0.521,0.108-0.781c1.055-6.847,4.205-13.394,9.438-18.628
		c0.052-0.058,0.102-0.107,0.14-0.146c0.101-0.102,0.209-0.21,0.312-0.306l0.145-0.139c5.342-5.082,11.928-8.072,18.73-8.975
		c0.26-0.031,0.527-0.064,0.775-0.09c10.029-1.104,20.452,2.287,27.97,10.1c2.613,2.721,4.669,5.771,6.187,9.012
		c-5.317,2.844-11.01,4.734-16.822,5.665c-0.082,0.025-0.172,0.038-0.262,0.044c-2.181,0.343-4.256,0.611-6.368,0.736
		c0.01,0.005,0.02,0.01,0.029,0.015c-0.018-0.003-0.034-0.005-0.052-0.007c0.024,0.006,0.052,0.014,0.076,0.02
		c0.073,0.022,0.145,0.05,0.219,0.074c0.018,0,0.038,0,0.056-0.002c4.534,1.24,9.297,1.909,14.22,1.908
		c3.894,0.001,7.69-0.412,11.349-1.207c0,0.007,0.008,0.02,0.008,0.025c0.113-0.019,0.222-0.038,0.329-0.063
		c4.076-0.915,7.989-2.279,11.699-4.084c0.38-0.185,0.755-0.369,1.131-0.564c0.044-0.026,0.102-0.051,0.152-0.076
		c0.298-0.16,0.604-0.318,0.901-0.477c0.317-0.172,0.629-0.344,0.94-0.521c0.292-0.172,0.584-0.344,0.876-0.514
		c0.699-0.414,1.384-0.846,2.064-1.289l0.8-0.529c-0.431-1.492-0.934-2.971-1.498-4.432c-2.502-6.453-6.301-12.524-11.396-17.822
		c-16.493-17.147-41.681-21.016-62.077-11.316c-0.234,0.1-0.456,0.209-0.678,0.316c-3.182,1.563-6.244,3.462-9.133,5.697
		c-0.159,0.114-0.318,0.241-0.476,0.368c-1.359,1.073-2.687,2.229-3.963,3.462c-1.391,1.333-2.699,2.736-3.912,4.191
		c-0.135,0.152-0.261,0.305-0.395,0.464c-2.343,2.839-4.337,5.875-6.008,9.044c-0.12,0.209-0.234,0.438-0.348,0.66
		c-10.143,19.93-7.171,44.967,9.19,61.968c6.96,7.241,15.478,12.112,24.52,14.595c0.046,0.014,0.084,0.014,0.122,0.034
		c2.113,0.574,4.257,1.013,6.417,1.328c5.379,0.786,10.856,0.765,16.233-0.077c0.089-0.008,0.177-0.021,0.257-0.044
		c0,0,0.001,0,0.001-0.003c0,0,0,0,0.002,0c10.479-1.676,20.571-6.464,28.776-14.358c8.155-7.843,13.313-17.656,15.42-27.989
		c0.02-0.084,0.032-0.178,0.052-0.262c0.001,0,0.001,0,0.002,0c0.105-0.526,0.199-1.054,0.29-1.581
		c0.022-0.136,0.043-0.273,0.064-0.411c0.063-0.385,0.122-0.77,0.176-1.156c0.01-0.072,0.021-0.145,0.033-0.217
		c-0.002,0.002-0.004,0.002-0.005,0.002C-131.675,345.961-131.958,339.369-133.417,332.99z"/>
	<path fill="#FFFFFF" d="M-229.793,324.46c0.112-0.216,0.222-0.437,0.34-0.642c1.623-3.08,3.562-6.031,5.841-8.793
		c0.129-0.153,0.252-0.303,0.383-0.45c1.177-1.413,2.451-2.778,3.802-4.075c1.242-1.198,2.532-2.322,3.853-3.365
		c0.154-0.123,0.309-0.246,0.463-0.357c2.811-2.174,5.786-4.02,8.88-5.539c0.216-0.104,0.432-0.21,0.66-0.309
		c5.866-2.789,12.142-4.416,18.485-4.903c-7.705-0.651-15.557,0.702-22.689,4.095c-0.191,0.083-0.374,0.171-0.556,0.26
		c-2.599,1.275-5.1,2.828-7.463,4.654c-0.13,0.094-0.26,0.197-0.387,0.301c-1.111,0.877-2.197,1.822-3.239,2.83
		c-1.138,1.089-2.207,2.235-3.198,3.424c-0.109,0.125-0.212,0.25-0.321,0.379c-1.915,2.32-3.543,4.801-4.91,7.391
		c-0.098,0.171-0.191,0.357-0.285,0.539c-3.286,6.456-4.879,13.567-4.784,20.666C-234.092,335.008-232.39,329.562-229.793,324.46z"
		/>
	<path fill="#FFFFFF" d="M-141.856,366.433c-0.11,0.217-0.223,0.438-0.34,0.642c-1.623,3.081-3.563,6.032-5.84,8.793
		c-0.13,0.154-0.253,0.303-0.384,0.451c-1.179,1.412-2.45,2.777-3.803,4.074c-1.241,1.197-2.532,2.321-3.854,3.366
		c-0.154,0.122-0.309,0.245-0.463,0.355c-2.81,2.177-5.786,4.021-8.879,5.541c-0.216,0.104-0.435,0.21-0.66,0.308
		c-5.868,2.789-12.144,4.415-18.486,4.904c7.704,0.651,15.555-0.704,22.689-4.095c0.191-0.083,0.373-0.171,0.556-0.26
		c2.599-1.276,5.102-2.829,7.461-4.655c0.131-0.094,0.261-0.197,0.391-0.301c1.11-0.878,2.195-1.822,3.238-2.828
		c1.136-1.09,2.205-2.238,3.196-3.425c0.109-0.126,0.214-0.251,0.321-0.38c1.915-2.318,3.545-4.799,4.909-7.39
		c0.099-0.172,0.192-0.358,0.286-0.54c3.286-6.455,4.881-13.566,4.783-20.665C-137.555,355.885-139.259,361.331-141.856,366.433z"/>
</g>
<text transform="matrix(1 0 0 1 -578.9658 212.3496)" fill="#5DD2B3" font-family="'Poppins-Bold'" font-size="100.0136" letter-spacing="-4">GUNDU</text>
<g>
	<path fill="#FFD49C" d="M-269.32,486.119c0,0,8.221-5.776,20.94-5.533c12.721,0.243,21.874,0.333,26.571-1.839
		c4.696-2.172,5.236-5.646,5.236-5.646s10.829,3.444,12.179,12.1c1.349,8.656,2.005,32.928-0.726,38.547
		c-2.731,5.618-9.612,10.609-13.254,12.384s-7.384,3.069-7.384,3.069s2.37,13.847-1.146,18.223
		c-3.516,4.374-7.35,6.151-11.795,5.045c-4.444-1.106-7.866-5.597-8.498-10.503c-0.634-4.906,0.44-12.241,0.44-12.241
		s-11.133-4.789-16.983-10.986c-5.85-6.196-5.704-10.341-6.027-13.42C-270.089,512.237-269.32,486.119-269.32,486.119z"/>
	<path fill="#999896" d="M-292.247,572.7c0,0,7.408-9.523,19.188-15.822c11.78-6.297,25.731-7.995,25.731-7.995
		s-0.077,10.31,5.628,12.174c5.705,1.862,10.907,1.805,14.13-2.952c3.223-4.758,2.779-9.955,2.779-9.955s17.66,2.597,27.36,8.462
		c9.7,5.864,15.162,11.874,15.162,11.874l2.344,2.768l0.392,0.573L-292.247,572.7z"/>
	<path fill="#C1BFB8" d="M-307.11,584.718c0,0,0.012-10.406,7.705-11.776c7.692-1.371,126.003-1.409,126.003-1.409
		s7.724,1.327,8.577,8.769c0.854,7.44,1.194,60.877,1.194,60.877s-1.572,8.752-9.791,8.973s-123.183,0.992-123.183,0.992
		s-8.217,0.349-9.732-8.755C-307.852,633.284-307.11,584.718-307.11,584.718z"/>
	<path fill="#FFE000" d="M-348.196,532.091c0,0,4.362,10.935-1.856,14.954s-9.117,3.186-10.953,2.724
		c-1.836-0.461-2.616-1.319-2.616-1.319L-348.196,532.091z"/>
	<path fill="#5DD2B3" d="M-355.695,611.081c0,0,23.4-1.032,23.607,0.218c0.207,1.25,1.787,39.192,0.637,39.783
		s-18.009,0.684-20.129,0.61c-2.12-0.072-4.25-1.012-4.451-1.684C-356.23,649.336-355.695,611.081-355.695,611.081z"/>
	<circle fill="#5DD2B3" cx="-411.835" cy="587.815" r="8.96"/>
	<path fill="#5DD2B3" d="M-343.733,526.163l-24.824,28.796c0,0-6.007-3.016-8.139-12.723s4.897-18.745,10.174-20.636
		c5.278-1.889,9.417-2.225,11.929-1.578C-352.081,520.669-344.132,525.012-343.733,526.163z"/>
	<path fill="#5DD2B3" d="M-278.417,560.118c0,0,6.697-4.314,15.91-7.501c9.213-3.186,15.952-3.646,15.952-3.646l0.182-9.637
		c0,0-12.473-4.003-17.761-11.651c-5.289-7.648-4.657-2.839-4.891-15.168c-0.234-12.33-0.295-26.396-0.295-26.396
		s5.722-5.171,17.67-5.111c11.947,0.059,20.431,0.446,26.675-1.165s7.276-4.128,7.657-4.518s0.746-2.225,0.746-2.225
		s11.607,4.109,12.459,11.422c0.853,7.313,3.48,35.513-2.522,41.457c-6.004,5.944-8.765,8.865-11.737,10.151
		c-2.973,1.285-6.811,2.678-7.003,2.68c-0.193,0.002,0.586,9.339,0.586,9.339s11.19,1.32,19.132,4.989
		c7.941,3.668,12.888,6.6,12.888,6.6s5.396-8.539,5.015-16.82s-3.787-11.23-4.575-21.434c-0.788-10.204-4.192-47.548-4.292-47.836
		s-3.379-17.883-12.59-22.982c-9.209-5.1-13.985-10.056-30.729-8.23c-16.743,1.824-26.908,6.081-32.472,16.935
		c-5.563,10.853-4.943,31.85-4.943,31.85s-2.75,29.704-4.574,38.974c-1.823,9.271-3.011,15.064-1.409,20.441
		S-278.417,560.118-278.417,560.118z"/>
	<path fill="#FFFFFF" d="M-223.538,607.759c-0.003-0.008-0.003-0.017-0.006-0.025c-1.229,0.826-2.576,1.405-3.973,1.735
		c-0.036,0.009-0.07,0.017-0.106,0.025c-1.401,0.319-2.847,0.385-4.268,0.203c-1.437-0.184-2.846-0.625-4.154-1.319
		c-0.822-0.438-1.605-0.975-2.33-1.613c0.085,0.1,0.167,0.201,0.249,0.302c1.47,1.84,2.328,4.008,2.577,6.229
		c0.136,1.229,0.088,2.473-0.148,3.688c0.556,0.082,1.125,0.094,1.687,0.03c0.834-0.092,1.629-0.337,2.363-0.73
		c0.025-0.012,0.041-0.021,0.055-0.029l0.03-0.018c0.127-0.069,0.251-0.144,0.373-0.221c0.051-0.632,0.067-1.268,0.046-1.901
		c0.884,0.045,1.769,0.018,2.648-0.08c0,0,0,0,0,0.001c-0.015,0.029-0.032,0.059-0.05,0.089c-0.312,0.53-0.696,1.028-1.154,1.479
		c-0.479,0.472-1.007,0.86-1.569,1.167c-0.029,0.02-0.061,0.036-0.092,0.052c-1.382,0.737-2.954,0.989-4.468,0.761
		c-0.026-0.003-0.049-0.008-0.07-0.01c-1.461-0.237-2.857-0.922-3.973-2.053c-1.59-1.618-2.259-3.804-2.009-5.898
		c0.007-0.058,0.015-0.112,0.021-0.168c0.209-1.465,0.866-2.871,1.972-4.001c0.011-0.013,0.021-0.024,0.029-0.032
		c0.021-0.021,0.044-0.046,0.065-0.065l0.031-0.029c1.129-1.1,2.528-1.754,3.979-1.963c0.056-0.007,0.113-0.015,0.166-0.021
		c2.14-0.261,4.374,0.439,5.998,2.09c0.565,0.576,1.012,1.223,1.344,1.91c-1.129,0.621-2.341,1.038-3.58,1.25
		c-0.018,0.007-0.036,0.01-0.056,0.011c-0.466,0.078-0.908,0.141-1.358,0.173c0.002,0,0.004,0.002,0.007,0.003
		c-0.004-0.001-0.008-0.001-0.012-0.001c0.005,0.001,0.012,0.002,0.017,0.004c0.016,0.004,0.031,0.01,0.047,0.016
		c0.004,0,0.008,0,0.012-0.002c0.972,0.255,1.991,0.387,3.042,0.374c0.832-0.009,1.642-0.105,2.422-0.285
		c0,0.002,0.001,0.005,0.001,0.006c0.025-0.004,0.048-0.008,0.07-0.015c0.869-0.205,1.701-0.506,2.489-0.899
		c0.082-0.041,0.161-0.08,0.24-0.123c0.009-0.007,0.022-0.012,0.032-0.018c0.064-0.035,0.128-0.069,0.192-0.104
		c0.067-0.037,0.133-0.075,0.199-0.114c0.063-0.037,0.124-0.074,0.186-0.111c0.148-0.09,0.294-0.184,0.438-0.28l0.171-0.114
		c-0.096-0.318-0.207-0.634-0.331-0.943c-0.55-1.373-1.376-2.661-2.477-3.781c-3.564-3.623-8.955-4.39-13.289-2.269
		c-0.049,0.022-0.097,0.046-0.144,0.069c-0.676,0.342-1.325,0.755-1.938,1.239c-0.034,0.024-0.067,0.052-0.101,0.079
		c-0.288,0.233-0.569,0.483-0.839,0.75c-0.294,0.287-0.569,0.591-0.825,0.903c-0.029,0.034-0.056,0.066-0.083,0.101
		c-0.494,0.612-0.914,1.265-1.263,1.946c-0.025,0.045-0.049,0.095-0.072,0.142c-2.12,4.282-1.425,9.624,2.11,13.216
		c1.504,1.531,3.336,2.551,5.273,3.06c0.01,0.004,0.019,0.004,0.025,0.007c0.453,0.118,0.912,0.207,1.375,0.269
		c1.151,0.155,2.32,0.138,3.468-0.055c0.019-0.002,0.038-0.006,0.055-0.011l0,0c0,0,0,0,0.001,0
		c2.234-0.383,4.379-1.431,6.112-3.137c1.724-1.695,2.802-3.803,3.228-6.015c0.004-0.019,0.007-0.038,0.011-0.057l0,0
		c0.021-0.113,0.04-0.226,0.058-0.338c0.005-0.029,0.009-0.06,0.013-0.089c0.013-0.082,0.025-0.164,0.035-0.247
		c0.002-0.015,0.005-0.031,0.007-0.047c0,0.001,0,0.001-0.001,0.001C-223.135,610.525-223.211,609.118-223.538,607.759z
		 M-242.849,604.137c-0.48,0.596-0.888,1.23-1.227,1.893c-0.025,0.044-0.048,0.091-0.071,0.138
		c-0.542,1.096-0.894,2.264-1.057,3.453c-0.036-1.517,0.287-3.04,0.973-4.427c0.021-0.039,0.039-0.08,0.061-0.116
		c0.285-0.556,0.628-1.09,1.031-1.59c0.023-0.028,0.044-0.056,0.067-0.082c0.208-0.256,0.435-0.504,0.675-0.739
		c0.22-0.218,0.45-0.423,0.686-0.612c0.026-0.022,0.054-0.045,0.082-0.065c0.5-0.395,1.031-0.732,1.583-1.012
		c0.039-0.02,0.078-0.039,0.118-0.057c1.516-0.742,3.19-1.05,4.837-0.929c-1.354,0.119-2.69,0.481-3.938,1.091
		c-0.048,0.022-0.095,0.046-0.14,0.067c-0.657,0.332-1.289,0.733-1.883,1.205c-0.033,0.023-0.066,0.051-0.099,0.077
		c-0.28,0.226-0.553,0.469-0.816,0.728c-0.284,0.28-0.554,0.575-0.802,0.88C-242.795,604.072-242.821,604.104-242.849,604.137z
		 M-225.177,615.896c-0.019,0.039-0.039,0.08-0.06,0.117c-0.285,0.556-0.628,1.09-1.031,1.59c-0.022,0.028-0.045,0.055-0.068,0.081
		c-0.209,0.257-0.435,0.505-0.675,0.739c-0.22,0.219-0.449,0.423-0.685,0.613c-0.027,0.021-0.055,0.044-0.083,0.065
		c-0.5,0.395-1.03,0.732-1.583,1.012c-0.038,0.02-0.076,0.039-0.118,0.057c-1.516,0.741-3.189,1.05-4.837,0.929
		c1.354-0.119,2.691-0.482,3.938-1.092c0.048-0.021,0.095-0.045,0.141-0.067c0.657-0.332,1.289-0.733,1.884-1.205
		c0.032-0.023,0.065-0.051,0.098-0.076c0.28-0.227,0.554-0.47,0.815-0.729c0.286-0.281,0.554-0.575,0.803-0.88
		c0.028-0.032,0.054-0.064,0.08-0.098c0.48-0.595,0.888-1.23,1.228-1.892c0.024-0.044,0.047-0.092,0.07-0.138
		c0.543-1.097,0.894-2.265,1.057-3.453C-224.167,612.987-224.49,614.511-225.177,615.896z"/>
	<g>
		
			<ellipse transform="matrix(-0.0113 -0.9999 0.9999 -0.0113 -756.5143 255.7385)" fill="#1C1C1C" cx="-251.822" cy="501.885" rx="3.854" ry="3.661"/>
		
			<ellipse transform="matrix(0.0111 0.9999 -0.9999 0.0111 282.7279 717.1893)" fill="#1C1C1C" cx="-221.251" cy="501.543" rx="3.854" ry="3.661"/>
		<path fill="#1C1C1C" d="M-228.771,524.246l-15.027,0.167C-236.113,532.251-228.771,524.246-228.771,524.246z"/>
		<path fill="#1C1C1C" d="M-112.033,625.568l-51.01,0.57l-0.502-44.86c-0.063-5.719-4.764-10.313-10.481-10.25l-4.555,0.051
			c-3.819-4.505-8.412-8.484-13.566-11.849c4.707-6.365,6.313-15.03,4.066-22.306c-3.135-10.169-5.216-26.039-7.969-60.638
			c-2.718-34.193-34.355-34.625-34.647-34.629c-1.227-0.041-4.109-0.031-6.398-0.006c-2.281,0.025-5.163,0.08-6.364,0.148
			c-0.315,0.01-31.943,1.15-33.888,35.395c-1.979,34.652-3.705,50.564-6.612,60.802c-2.076,7.283-0.308,15.857,4.479,22.102
			c-5.14,3.502-9.688,7.623-13.444,12.259l-4.555,0.051c-5.718,0.064-10.321,4.764-10.257,10.481l0.501,44.861l-12.169,0.136
			c-1.235-5.69-5.717-10.195-11.565-11.387l-0.048-4.269c-0.014-1.287-0.796-2.28-1.774-2.27l-22.504,0.252
			c-0.986,0.011-1.746,1.021-1.731,2.308l0.177,15.784l-42.194,0.472l-9.915-31.378c4.06-1.245,7.002-5.045,6.953-9.501
			c-0.057-5.081-3.979-9.229-8.934-9.677l16.374-61.296l23.421,7.396c-0.547,0.5-1.072,1.031-1.567,1.599
			c-3.5,4.003-5.232,9.129-4.876,14.434c0.355,5.305,2.756,10.153,6.759,13.652c0.492,0.43,1.035,0.856,1.663,1.304l0.568,0.406
			l5.178-5.922c1.651,0.757,3.468,1.147,5.294,1.127c3.516-0.039,6.861-1.58,9.175-4.226c3.634-4.158,4.061-10.136,1.135-14.749
			l5.173-5.918l-0.468-0.509c-0.476-0.516-0.986-1.014-1.519-1.479c-4.002-3.498-9.125-5.228-14.433-4.876
			c-4.173,0.279-7.436,1.602-10.685,4.015l-25.893-8.21l-16.896,63.25c-5.138,0.367-9.182,4.681-9.123,9.899
			c0.061,5.417,4.518,9.776,9.936,9.716c0.425-0.005,0.841-0.045,1.251-0.104l9.815,31.064l-14.511,0.163l0.018,1.541l14.979-0.168
			l5.552,17.573l-20.203,0.226l0.056,5.01l43.157-0.482l-0.056-5.01l-21.343,0.238l-5.552-17.572l41.726-0.467l0.228,20.354
			c0.014,1.287,0.796,2.28,1.783,2.27l22.503-0.252c0.979-0.011,1.738-1.021,1.724-2.309l-0.047-4.276
			c6.834-1.534,11.668-7.615,11.589-14.698c-0.005-0.509-0.034-1.009-0.094-1.509l11.93-0.134l0.14,12.5
			c0.063,5.719,4.771,10.313,10.489,10.25l123.454-1.38c5.718-0.064,10.313-4.764,10.25-10.481l-0.141-12.5l51.011-0.571
			L-112.033,625.568z M-350.113,545.68c-2.026,2.317-4.953,3.666-8.031,3.7c-1.445,0.017-2.884-0.259-4.215-0.801l13.486-15.425
			C-346.576,537.136-347.033,542.157-350.113,545.68z M-358.96,520.702c4.9-0.332,9.623,1.271,13.316,4.5
			c0.316,0.276,0.625,0.564,0.921,0.862l-4.636,5.303l0,0l-14.837,16.97l0,0l-4.638,5.305c-0.355-0.269-0.68-0.532-0.981-0.795
			c-3.693-3.229-5.908-7.702-6.236-12.597c-0.328-4.894,1.27-9.623,4.499-13.315C-368.326,523.243-363.854,521.03-358.96,520.702z
			 M-420.118,588.101c-0.051-4.568,3.624-8.326,8.192-8.377c4.569-0.051,8.326,3.623,8.377,8.191s-3.624,8.326-8.192,8.377
			C-416.309,596.344-420.066,592.669-420.118,588.101z M-373.167,651.133l-40.075,0.448l-0.022-1.927l40.075-0.448L-373.167,651.133
			z M-320.977,627.904l-9.864,0.11l-0.111-9.934C-325.968,619.228-322.156,623.062-320.977,627.904z M-332.137,649.927
			c0.005,0.438-0.169,0.719-0.2,0.749l-22.465,0.259c-0.077-0.037-0.257-0.305-0.262-0.752l-0.228-20.353l-0.017-1.542
			l-0.176-15.783c-0.005-0.447,0.169-0.719,0.207-0.75l22.457-0.259c0.078,0.037,0.258,0.313,0.263,0.752l0.045,4l0.01,0.909
			l0.122,10.875l0.017,1.541l0.173,15.437l0.01,0.909L-332.137,649.927z M-320.596,630.952c0.07,6.234-4.109,11.607-10.066,13.1
			l-0.162-14.496l10.126-0.112C-320.638,629.936-320.601,630.443-320.596,630.952z M-282.483,538.413
			c2.944-10.354,4.692-26.352,6.669-61.128c0.786-13.767,6.449-23.657,16.845-29.399c7.79-4.304,15.473-4.544,15.572-4.545
			c0.993-0.058,3.475-0.116,6.318-0.147c2.852-0.032,5.334-0.029,6.352,0.006c0.077,0,7.762,0.067,15.646,4.195
			c10.514,5.51,16.403,15.271,17.498,29.016c2.754,34.724,4.859,50.679,8.034,60.963c2.103,6.829,0.599,14.978-3.836,20.962
			c-9.034-5.61-19.696-9.314-30.919-10.738l-0.089-7.868c8.095-2.681,15.125-8.085,19.839-15.26l0.068-0.14
			c0.089-0.225,0.18-0.41,0.294-0.581c2.054-3.145,2.339-15.502,0.86-36.744c-0.468-5.367-2.682-8.98-7.539-11.862
			c-1.383-0.933-2.979-1.717-4.781-2.297c-0.17-0.068-0.334-0.136-0.512-0.211l-1.237-0.457l0.023,0.162l-0.123-0.037l0.183,1.186
			c0.009,0.045,0.144,1.022-0.854,2.205c-1.552,1.822-5.704,4.034-16.688,4.033c-2.181,0.002-4.309,0.002-6.381,0.025l-0.116,0.002
			c-12.854,0.144-22.586,1.199-28.244,5.888l-0.26,0.219l-0.012,0.331c-1.107,22.218-0.571,35.092,1.623,38.313l0.079,0.138
			c4.883,7.345,12.159,12.781,20.543,15.348l0.087,7.86c-11.273,1.676-21.796,5.64-30.665,11.396
			C-282.747,553.376-284.433,545.278-282.483,538.413z M-246.532,538.673c-8.266-2.396-15.446-7.682-20.244-14.911
			c-0.032-0.054-0.063-0.107-0.102-0.169c-1.912-2.799-2.398-15.928-1.362-36.98c5.348-4.215,14.663-5.182,26.963-5.319
			c2.043-0.023,4.146-0.023,6.298-0.024c0.354,0.004,0.701,0,1.032-0.004l0.116-0.001c8.847-0.099,14.571-1.666,17.02-4.661
			c0.646-0.793,0.946-1.544,1.07-2.139c1.852,0.766,3.379,1.558,4.667,2.391c4.119,3.022,6.063,7.331,6.096,10.269
			c1.902,27.387,0.43,34.178-0.617,35.784c-0.159,0.242-0.287,0.498-0.406,0.783c-4.624,7.005-11.549,12.246-19.514,14.748
			l-0.545,0.176l0.145,12.955c0.062,5.518-4.381,10.068-9.906,10.131c-2.412,0.026-4.641-0.813-6.391-2.219
			c-2.249-1.817-3.706-4.583-3.74-7.688l-0.029-12.956L-246.532,538.673z M-278.52,561.299l0.032,0.037l0.574-0.384
			c8.774-5.855,19.267-9.826,30.394-11.523l0.026,2.381c0.039,3.585,1.717,6.779,4.314,8.87c2.015,1.627,4.584,2.593,7.375,2.561
			c6.372-0.07,11.502-5.315,11.43-11.688l-0.026-2.404c17.553,2.277,33.357,10.225,43.786,21.954l-110.275,1.233
			C-287.368,568.188-283.208,564.48-278.52,561.299z M-164.428,640.197c0.055,4.863-3.855,8.869-8.726,8.923l-123.453,1.381
			c-4.871,0.054-8.876-3.863-8.931-8.726l-0.14-12.5l-0.018-1.542l-0.501-44.86c-0.055-4.863,3.862-8.869,8.733-8.923l123.454-1.381
			c4.87-0.054,8.868,3.863,8.923,8.727l0.501,44.86l0.018,1.541L-164.428,640.197z"/>
	</g>
</g>
<path fill="#5DD2B3" d="M823.408,323.884c-0.019-0.054-0.023-0.109-0.04-0.165c-7.893,5.18-16.516,8.774-25.435,10.778
	c-0.229,0.05-0.453,0.101-0.688,0.146c-8.947,1.935-18.162,2.257-27.2,0.995c-9.143-1.273-18.093-4.184-26.379-8.705
	c-5.21-2.844-10.161-6.32-14.728-10.442c0,0.001,0,0.002,0,0.002c0-0.001,0-0.001-0.004-0.002c0.535,0.64,1.049,1.289,1.559,1.94
	c9.238,11.828,14.559,25.701,15.982,39.879c0.777,7.832,0.387,15.762-1.209,23.486c3.533,0.562,7.158,0.672,10.746,0.314
	c5.319-0.531,10.399-2.033,15.108-4.485c0.167-0.077,0.263-0.13,0.354-0.192l0.196-0.106c0.809-0.429,1.607-0.89,2.386-1.374
	c0.371-4.026,0.523-8.072,0.435-12.112c5.624,0.349,11.271,0.235,16.883-0.326c0,0,0,0,0,0.003
	c-0.096,0.188-0.218,0.379-0.328,0.568c-2.023,3.355-4.515,6.503-7.462,9.348c-3.088,2.965-6.477,5.412-10.082,7.322
	c-0.19,0.123-0.39,0.225-0.588,0.32c-8.862,4.601-18.899,6.096-28.527,4.532c-0.162-0.026-0.31-0.054-0.446-0.069
	c-9.288-1.617-18.143-6.08-25.163-13.36c-10.021-10.427-14.119-24.4-12.381-37.732c0.043-0.363,0.095-0.71,0.147-1.063
	c1.436-9.321,5.725-18.234,12.848-25.36c0.07-0.079,0.139-0.147,0.19-0.198c0.138-0.139,0.286-0.285,0.425-0.416l0.196-0.189
	c7.272-6.918,16.238-10.989,25.5-12.217c0.354-0.044,0.718-0.088,1.056-0.123c13.653-1.504,27.843,3.113,38.078,13.749
	c3.558,3.704,6.356,7.858,8.423,12.269c-7.239,3.872-14.989,6.446-22.902,7.713c-0.111,0.035-0.233,0.053-0.356,0.061
	c-2.969,0.467-5.794,0.832-8.669,1.002c0.013,0.007,0.026,0.014,0.04,0.02c-0.024-0.003-0.047-0.006-0.071-0.009
	c0.033,0.009,0.071,0.019,0.104,0.027c0.1,0.03,0.196,0.067,0.298,0.101c0.023,0,0.052-0.001,0.075-0.002
	c6.173,1.688,12.657,2.598,19.359,2.597c5.3,0.001,10.47-0.562,15.449-1.644c0,0.01,0.011,0.026,0.011,0.035
	c0.154-0.025,0.302-0.053,0.448-0.086c5.55-1.245,10.877-3.104,15.928-5.559c0.517-0.252,1.027-0.502,1.539-0.77
	c0.061-0.035,0.139-0.069,0.208-0.104c0.405-0.218,0.821-0.434,1.227-0.649c0.433-0.232,0.856-0.468,1.28-0.71
	c0.397-0.232,0.795-0.467,1.192-0.699c0.952-0.563,1.885-1.15,2.811-1.755l1.089-0.72c-0.586-2.031-1.271-4.045-2.039-6.034
	c-3.406-8.784-8.578-17.05-15.514-24.263c-22.454-23.345-56.745-28.61-84.512-15.407c-0.318,0.137-0.621,0.286-0.924,0.432
	c-4.332,2.127-8.5,4.712-12.434,7.755c-0.216,0.156-0.433,0.329-0.648,0.501c-1.85,1.462-3.657,3.036-5.396,4.712
	c-1.894,1.816-3.674,3.727-5.325,5.707c-0.184,0.207-0.355,0.416-0.537,0.632c-3.189,3.864-5.906,7.998-8.18,12.312
	c-0.164,0.286-0.319,0.598-0.475,0.9c-13.809,27.133-9.763,61.217,12.512,84.362c9.475,9.857,21.07,16.489,33.381,19.868
	c0.063,0.02,0.115,0.02,0.166,0.048c2.877,0.782,5.796,1.38,8.736,1.808c7.323,1.071,14.779,1.041,22.1-0.104
	c0.121-0.011,0.241-0.03,0.35-0.06c0,0,0.002,0,0.002-0.004c0,0,0,0,0.002,0c14.266-2.281,28.006-8.801,39.177-19.548
	c11.103-10.679,18.123-24.038,20.992-38.105c0.027-0.114,0.044-0.242,0.071-0.356c0.001,0,0.001,0,0.002,0
	c0.144-0.716,0.271-1.434,0.396-2.152c0.03-0.186,0.059-0.371,0.087-0.559c0.086-0.524,0.167-1.049,0.24-1.575
	c0.013-0.099,0.028-0.196,0.045-0.296c-0.003,0.004-0.006,0.004-0.007,0.004C825.778,341.541,825.395,332.566,823.408,323.884z"/>
<path fill="#FFFFFF" d="M692.201,312.27c0.152-0.293,0.303-0.594,0.463-0.873c2.209-4.193,4.849-8.211,7.952-11.971
	c0.175-0.209,0.343-0.412,0.521-0.613c1.604-1.924,3.337-3.782,5.177-5.547c1.69-1.632,3.446-3.162,5.245-4.583
	c0.211-0.167,0.422-0.334,0.631-0.486c3.826-2.96,7.878-5.472,12.09-7.541c0.293-0.142,0.588-0.285,0.898-0.419
	c7.986-3.798,16.529-6.011,25.166-6.675c-10.49-0.888-21.179,0.957-30.89,5.575c-0.261,0.113-0.509,0.232-0.757,0.353
	c-3.538,1.738-6.943,3.851-10.16,6.338c-0.176,0.126-0.354,0.268-0.526,0.408c-1.513,1.195-2.991,2.48-4.409,3.853
	c-1.55,1.483-3.004,3.044-4.354,4.663c-0.148,0.169-0.289,0.339-0.438,0.516c-2.606,3.157-4.824,6.534-6.685,10.061
	c-0.134,0.232-0.261,0.486-0.388,0.734c-4.474,8.789-6.643,18.471-6.513,28.135C686.348,326.63,688.666,319.215,692.201,312.27z"/>
<path fill="#FFFFFF" d="M811.919,369.412c-0.15,0.295-0.304,0.596-0.463,0.873c-2.21,4.195-4.85,8.213-7.95,11.971
	c-0.177,0.209-0.345,0.412-0.522,0.613c-1.604,1.924-3.336,3.781-5.177,5.548c-1.69,1.63-3.448,3.16-5.247,4.583
	c-0.21,0.166-0.42,0.334-0.63,0.484c-3.825,2.962-7.877,5.474-12.088,7.543c-0.294,0.142-0.592,0.285-0.898,0.419
	c-7.989,3.798-16.532,6.011-25.167,6.677c10.488,0.887,21.176-0.959,30.889-5.574c0.261-0.113,0.508-0.234,0.757-0.354
	c3.538-1.737,6.945-3.851,10.157-6.337c0.179-0.129,0.355-0.27,0.532-0.409c1.512-1.196,2.988-2.481,4.408-3.851
	c1.546-1.483,3.002-3.047,4.352-4.663c0.149-0.171,0.291-0.341,0.438-0.517c2.607-3.157,4.826-6.534,6.684-10.061
	c0.134-0.234,0.262-0.488,0.39-0.735c4.474-8.788,6.645-18.47,6.512-28.134C817.773,355.052,815.454,362.467,811.919,369.412z"/>
<path fill="#0B8764" d="M576.217,234.586c0,0.25-0.02,0.51-0.04,0.76c0,0.04-0.01,0.07-0.01,0.11c-0.43,3.85-3.7,6.85-7.67,6.85
	c-4.26,0-7.72-3.46-7.72-7.72c0-4.09,3.18-7.43,7.189-7.7c0.181-0.01,0.351-0.02,0.53-0.02c0.16,0,0.33,0.01,0.49,0.02
	c3.75,0.23,6.77,3.13,7.18,6.83c0,0.04,0.01,0.07,0.01,0.11C576.197,234.077,576.217,234.336,576.217,234.586z"/>
</svg>
